<?xml version="1.0" encoding="UTF-8"?>
<svg width="54px" height="55px" viewBox="0 0 54 55" version="1.1" xmlns="http://www.w3.org/2000/svg" xmlns:xlink="http://www.w3.org/1999/xlink">
    <title>C62D5583-1EE1-4AFB-8A06-DCCB3F9F03E8</title>
    <g id="iOS-practical-test" stroke="none" stroke-width="1" fill="none" fill-rule="evenodd" opacity="0.35">
        <g id="home-2" transform="translate(-122.000000, -705.000000)" fill="#111111" fill-rule="nonzero">
            <g id="bottom-bar" transform="translate(27.000000, 698.000000)">
                <g id="tab-budget" transform="translate(95.000000, 7.877724)">
                    <path d="M37.7027794,24.3081301 L37.7027794,23.3131773 C37.7027794,21.4937675 36.5410507,19.9643694 34.9740677,19.5261445 L34.9712403,17.8856709 C34.9712403,16.2846983 33.7589333,14.9818402 32.268603,14.9818402 L32.1256645,14.9818402 L19.4773347,19.1986575 C19.1892586,19.2165511 18.9159477,19.2881256 18.6592866,19.3958249 L18.6263008,19.3958249 C16.6169939,19.3958249 14.9818402,21.1531135 14.9818402,23.3131773 L14.9818402,33.0378534 C14.9818402,35.1975796 16.6166797,36.9552058 18.6263008,36.9552058 L34.0583188,36.9552058 C36.0676258,36.9552058 37.7027794,35.1979173 37.7027794,33.0378534 L37.7027794,31.7444486 C38.4325512,31.4409322 38.9527845,30.6806222 38.9527845,29.7899926 L38.9527845,26.2619109 C38.9524704,25.3719565 38.4325512,24.6116464 37.7027794,24.3081301 Z M36.9552058,29.8861224 C36.9552058,29.929496 36.9273318,29.9636804 36.8919647,29.9636804 L32.0242004,29.9636804 C31.9888334,29.9636804 31.9612591,29.929496 31.9612591,29.8861224 L31.9612591,26.0453459 C31.9612591,26.0030749 31.9894328,25.968523 32.0242004,25.968523 L36.8919647,25.968523 C36.9267323,25.968523 36.9552058,26.0030749 36.9552058,26.0453459 L36.9552058,29.8861224 Z M32.2429402,16.9794189 C32.6466337,17.0304354 32.9574873,17.3382348 32.9574873,17.7103717 L32.9600484,18.9769976 L24.9697337,18.9769976 L32.2429402,16.9794189 Z M34.1944285,34.9576271 L18.7414069,34.9576271 C17.7683969,34.9576271 16.9794189,34.0807376 16.9794189,32.9993919 L16.9794189,22.9328115 C16.9794189,21.8511163 17.7683969,20.9745763 18.7414069,20.9745763 L34.1944285,20.9745763 C35.167753,20.9745763 35.9564165,21.8511163 35.9564165,22.9328115 L35.9564165,23.815293 L32.032289,23.815293 C30.9551515,23.815293 30.078719,24.788644 30.078719,25.9853239 L30.078719,29.6372246 C30.078719,30.834254 30.9551515,31.8079544 32.032289,31.8079544 L35.9564165,31.8079544 L35.9564165,32.9997414 C35.9564165,34.0807376 35.167753,34.9576271 34.1944285,34.9576271 Z" id="Shape"></path>
                </g>
            </g>
        </g>
    </g>
</svg>