<?xml version="1.0" encoding="UTF-8"?>
<svg width="54px" height="55px" viewBox="0 0 54 55" version="1.1" xmlns="http://www.w3.org/2000/svg" xmlns:xlink="http://www.w3.org/1999/xlink">
    <title>24CA56D0-4112-45C2-BB97-A15CCDE0DCE3</title>
    <g id="iOS-practical-test" stroke="none" stroke-width="1" fill="none" fill-rule="evenodd" stroke-linecap="round" stroke-linejoin="round">
        <g id="home-2" transform="translate(-44.000000, -705.000000)" stroke="#111111" stroke-width="1.99757869">
            <g id="bottom-bar" transform="translate(27.000000, 698.000000)">
                <g id="tab-overview" transform="translate(17.000000, 7.877724)">
                    <g id="money-11" transform="translate(14.981840, 18.976998)">
                        <path d="M4.48136714,-6.34469666e-16 L18.4907878,1.81052596e-16 C20.0490568,-1.05196772e-16 20.6141228,0.162248155 21.1838026,0.466916272 C21.7534825,0.77158439 22.2005706,1.21867247 22.5052387,1.78835232 C22.8099068,2.35803217 22.972155,2.92309816 22.972155,4.48136714 L22.972155,12.2256547 C22.972155,13.7839236 22.8099068,14.3489896 22.5052387,14.9186695 C22.2005706,15.4883493 21.7534825,15.9354374 21.1838026,16.2401055 C20.6141228,16.5447736 20.0490568,16.7070218 18.4907878,16.7070218 L4.48136714,16.7070218 C2.92309816,16.7070218 2.35803217,16.5447736 1.78835232,16.2401055 C1.21867247,15.9354374 0.77158439,15.4883493 0.466916272,14.9186695 C0.162248155,14.3489896 3.33579556e-16,13.7839236 -5.741188e-16,12.2256547 L3.47410266e-16,4.48136714 C-2.01855369e-16,2.92309816 0.162248155,2.35803217 0.466916272,1.78835232 C0.77158439,1.21867247 1.21867247,0.77158439 1.78835232,0.466916272 C2.35803217,0.162248155 2.92309816,3.68645147e-16 4.48136714,-6.34469666e-16 Z" id="Rectangle"></path>
                        <circle id="Oval" cx="11.4860775" cy="8.3535109" r="3.13256659"></circle>
                    </g>
                </g>
            </g>
        </g>
    </g>
</svg>