<?xml version="1.0" encoding="UTF-8"?>
<svg width="54px" height="55px" viewBox="0 0 54 55" version="1.1" xmlns="http://www.w3.org/2000/svg" xmlns:xlink="http://www.w3.org/1999/xlink">
    <title>EF5B23A9-64F6-47FF-9D72-8C7112E2B773</title>
    <g id="iOS-practical-test" stroke="none" stroke-width="1" fill="none" fill-rule="evenodd" opacity="0.35" stroke-linecap="round" stroke-linejoin="round">
        <g id="home-2" transform="translate(-278.000000, -705.000000)" stroke="#111111" stroke-width="2">
            <g id="bottom-bar" transform="translate(27.000000, 698.000000)">
                <g id="tab-profile" transform="translate(251.000000, 7.877724)">
                    <g id="circle-10" transform="translate(16.000000, 16.122276)">
                        <path d="M18,19.486 L18,18.741 C18,17.664 17.423,16.67 16.488,16.136 L13.269,14.294" id="Path"></path>
                        <path d="M8.727,14.292 L5.512,16.136 C4.577,16.67 4,17.664 4,18.741 L4,19.486" id="Path"></path>
                        <path d="M11,15 L11,15 C8.791,15 7,13.209 7,11 L7,9 C7,6.791 8.791,5 11,5 L11,5 C13.209,5 15,6.791 15,9 L15,11 C15,13.209 13.209,15 11,15 Z" id="Path"></path>
                        <circle id="Oval" cx="11" cy="11" r="11"></circle>
                    </g>
                </g>
            </g>
        </g>
    </g>
</svg>